<svg xmlns="http://www.w3.org/2000/svg" viewBox="0 0 200.62 150.96"><defs><style>.cls-1{fill:#fff;}</style></defs><g id="Layer_2" data-name="Layer 2"><g id="Layer_1-2" data-name="Layer 1"><path class="cls-1" d="M18.09,129.68a1.58,1.58,0,0,1-.5,1.18,1.6,1.6,0,0,1-1.19.51h0a1.6,1.6,0,0,1-1.19-.51,1.58,1.58,0,0,1-.5-1.18v-8.83H3.43v8.83a1.54,1.54,0,0,1-.5,1.18,1.6,1.6,0,0,1-1.19.51H1.69a1.6,1.6,0,0,1-1.19-.51,1.58,1.58,0,0,1-.5-1.18V112.53a8.71,8.71,0,0,1,2.65-6.4A8.77,8.77,0,0,1,9,103.5a8.79,8.79,0,0,1,6.4,2.63,8.71,8.71,0,0,1,2.65,6.4Zm-3.43-12.25v-4.9A5.6,5.6,0,0,0,9,106.91a5.62,5.62,0,0,0-5.61,5.62v4.9Z"/><path class="cls-1" d="M34.73,123a4.94,4.94,0,0,0,9.87,0V105.19a1.62,1.62,0,0,1,.5-1.21,1.66,1.66,0,0,1,1.2-.48h0a1.62,1.62,0,0,1,1.19.48,1.66,1.66,0,0,1,.5,1.21V123a4.95,4.95,0,0,0,9.89,0V105.19a1.66,1.66,0,0,1,.5-1.21,1.62,1.62,0,0,1,1.19-.48h0a1.64,1.64,0,0,1,1.69,1.69V123A8.36,8.36,0,0,1,53,131.37a8,8,0,0,1-6.64-3.29,8,8,0,0,1-6.66,3.29A8.36,8.36,0,0,1,31.29,123V105.19A1.67,1.67,0,0,1,33,103.5H33a1.69,1.69,0,0,1,1.69,1.69Z"/><path class="cls-1" d="M81.77,106.87a4.37,4.37,0,0,0-4.38,4.38,3.67,3.67,0,0,0,2,3.36,29.47,29.47,0,0,0,4.6,1.56,11.56,11.56,0,0,1,4.41,2.15,6.63,6.63,0,0,1,2,5.18,7.89,7.89,0,0,1-7.87,7.87H75.48a1.73,1.73,0,0,1-1.69-1.69v-.11a1.63,1.63,0,0,1,.5-1.19,1.61,1.61,0,0,1,1.19-.5h7.26a4.39,4.39,0,0,0,4.38-4.38,3.76,3.76,0,0,0-2-3.38,29.76,29.76,0,0,0-4.6-1.69,12.58,12.58,0,0,1-4.42-2.22,6.34,6.34,0,0,1-2-5A7.85,7.85,0,0,1,82,103.39h5a1.6,1.6,0,0,1,1.2.5,1.57,1.57,0,0,1,.49,1.18v.12A1.69,1.69,0,0,1,87,106.87Z"/><path class="cls-1" d="M126.13,107.58a14,14,0,1,1-9.88-4.08A13.42,13.42,0,0,1,126.13,107.58ZM108.83,110a10.51,10.51,0,1,0,7.42-3.08A10.14,10.14,0,0,0,108.83,110Z"/><path class="cls-1" d="M146.29,129.68a1.58,1.58,0,0,1-.5,1.18,1.62,1.62,0,0,1-1.19.51h-.06a1.62,1.62,0,0,1-1.19-.51,1.58,1.58,0,0,1-.5-1.18V111.86a8.38,8.38,0,0,1,15-5.08,8.37,8.37,0,0,1,15,5.08v17.82a1.6,1.6,0,0,1-.48,1.18,1.63,1.63,0,0,1-1.2.51h0a1.73,1.73,0,0,1-1.69-1.69V111.86a4.95,4.95,0,1,0-9.89,0v17.82a1.73,1.73,0,0,1-1.69,1.69h0a1.61,1.61,0,0,1-1.2-.51,1.58,1.58,0,0,1-.5-1.18V111.86a4.94,4.94,0,1,0-9.87,0Z"/><path class="cls-1" d="M189.53,115.72h9.41a1.66,1.66,0,0,1,1.18.49,1.6,1.6,0,0,1,.5,1.2v0a1.67,1.67,0,0,1-1.68,1.69h-9.41v6a2.77,2.77,0,0,0,2.78,2.78h6.63a1.71,1.71,0,0,1,1.68,1.71v0a1.54,1.54,0,0,1-.5,1.18,1.6,1.6,0,0,1-1.18.51h-6.63a6.21,6.21,0,0,1-6.21-6.22V109.71a6.21,6.21,0,0,1,6.21-6.21h6.63a1.59,1.59,0,0,1,1.18.5,1.56,1.56,0,0,1,.5,1.19v0a1.71,1.71,0,0,1-1.68,1.71h-6.63a2.78,2.78,0,0,0-2.78,2.78Z"/><path class="cls-1" d="M65.93,150.81v-10h1.31v4.3h5.28v-4.3h1.3v10H72.53v-4.56H67.24v4.56Z"/><path class="cls-1" d="M84.14,151a4.6,4.6,0,0,1-3.55-1.39,5.27,5.27,0,0,1-1.29-3.75,6,6,0,0,1,.57-2.68,4.24,4.24,0,0,1,1.67-1.81,5,5,0,0,1,2.62-.65,4.49,4.49,0,0,1,3.49,1.42,6.05,6.05,0,0,1,0,7.47A4.59,4.59,0,0,1,84.14,151Zm0-1.1a3.07,3.07,0,0,0,2.54-1.08,5.46,5.46,0,0,0,0-5.9,3,3,0,0,0-2.52-1.1,3.09,3.09,0,0,0-2.54,1.11,4.46,4.46,0,0,0-.91,2.93,4.54,4.54,0,0,0,.89,3A3.11,3.11,0,0,0,84.13,149.86Z"/><path class="cls-1" d="M96.29,150.81V142H93.11v-1.11h7.68V142h-3.2v8.85Z"/><path class="cls-1" d="M105.61,150.81v-10h6V142h-4.66v3.13h4.4v1.1h-4.4v3.52h4.86v1.1Z"/><path class="cls-1" d="M117.2,150.81v-10h1.3v8.86h4.63v1.1Z"/><path class="cls-1" d="M130.86,149.86a3.36,3.36,0,0,0,.74-.08,2.33,2.33,0,0,0,.58-.21,1.55,1.55,0,0,0,.41-.35,1.38,1.38,0,0,0,.25-.48,1.9,1.9,0,0,0,.08-.6,2.1,2.1,0,0,0-.07-.6,1.22,1.22,0,0,0-.29-.46,2.09,2.09,0,0,0-.58-.39,6.17,6.17,0,0,0-1-.36l-.3-.09-.31-.09a4.91,4.91,0,0,1-2.08-1,2.7,2.7,0,0,1-.22-3.25,2.55,2.55,0,0,1,1.17-.89,4.49,4.49,0,0,1,1.7-.29,4.14,4.14,0,0,1,3.06,1l-.64.88a2.9,2.9,0,0,0-1-.58,3.45,3.45,0,0,0-1.32-.24,2.64,2.64,0,0,0-1.5.37,1.24,1.24,0,0,0-.57,1.11,2,2,0,0,0,.13.78,1.23,1.23,0,0,0,.49.5,5.47,5.47,0,0,0,1.06.44l.26.07.32.09a8.16,8.16,0,0,1,1.44.54,3.08,3.08,0,0,1,.91.65,2,2,0,0,1,.48.8,3.58,3.58,0,0,1,.13,1.05,2.71,2.71,0,0,1-.26,1.23,2.22,2.22,0,0,1-.73.87,3.59,3.59,0,0,1-1.06.51,5,5,0,0,1-1.32.17,5,5,0,0,1-2-.37,4.18,4.18,0,0,1-1.28-.75l.58-1a5.06,5.06,0,0,0,1.15.66A3.79,3.79,0,0,0,130.86,149.86Z"/><path class="cls-1" d="M97.75,7.7C90.23,23.73,83,39.55,75.41,55.24c-1.56,3.23-1.85,4.25-2.83,4.25-1.8,0-2-1.24-3.47-3.91C58.45,36.79,64.79,13.3,84.25,3.73A36.72,36.72,0,0,1,134.42,23a32.2,32.2,0,0,1,1.09,3.32c.3,1.08.08,2-1.17,2.3a1.74,1.74,0,0,1-2.3-1.28,50.85,50.85,0,0,0-2-5.08C124.57,11,112.6,3.4,100.82,4.18,109,21.94,117.09,39.51,125.29,57.3a19.69,19.69,0,0,0,5.34-7.86c.81-1.91,1.33-3.36,3.31-2.44s.6,2.66.11,3.89c-7.07,17.81-29,27.21-47,19.5-5.24-2.25-6.34-1.5-8.86,3.65-.81,1.64-1.69,3.73-3.61,7.66-1,2-2.08,4.32-4,3.23s-.22-3.76.3-4.87c9.37-19.85,18.66-39.74,28.42-59.4C101.86,15.68,101.25,12,97.75,7.7Zm6.09,11.89C97,34.29,90.62,48,84.2,61.61c-.81,1.72-1,2.82,1,4,9.37,5.89,28,4.12,35.69-3.45,1.28-1.25,1.55-2.28.79-3.91C115.8,45.69,110,33,103.84,19.59ZM95.31,4.13c-12,2.39-19.71,8.43-24.59,18.15-5.06,10.07-4.38,23.88,1.69,31.38C79.89,37.75,87.4,20.94,95.31,4.13Z"/></g></g></svg>